<svg width="335" height="202" viewBox="0 0 335 202" fill="none" xmlns="http://www.w3.org/2000/svg">
<path d="M268.379 139.525C268.498 139.883 269.065 139.704 268.945 139.346C268.2 137.021 268.438 134.338 268.737 131.953C269.035 129.806 269.363 127.153 270.764 125.453C273.715 121.876 280.036 121.816 284.269 121.578C297.029 120.832 309.581 123.754 322.281 123.843C324.398 123.843 326.545 123.784 328.632 123.396C330.122 123.128 331.911 122.711 332.955 121.488C334.028 120.236 334.117 118.358 334.177 116.808C334.236 114.691 333.968 112.574 333.849 110.457C333.73 108.191 334.773 103.928 332.12 102.676C330.569 101.96 328.572 102.259 326.932 102.318C323.563 102.467 320.224 102.408 316.855 102.288C311.161 102.08 303.499 102.557 300.398 96.6239C299.116 94.209 298.58 91.3171 298.222 88.5743C298.222 88.5743 298.192 88.5743 298.192 88.5445C297.983 88.3656 297.775 88.1867 297.566 88.0078C297.745 89.4389 297.983 90.8699 298.311 92.2711C299.385 96.8624 301.501 100.47 306.242 101.871C308.567 102.557 311.012 102.646 313.427 102.765C316.885 102.914 320.343 103.064 323.772 103.004C325.412 102.974 327.022 102.885 328.661 102.825C329.586 102.795 330.629 102.765 331.524 103.064C333.253 103.66 333.282 105.538 333.282 107.088C333.282 109.086 333.282 111.054 333.432 113.051C333.581 115.227 333.849 117.642 333.193 119.729C332.478 122.055 329.973 122.591 327.827 122.889C325.65 123.217 323.444 123.247 321.268 123.188C308.15 122.919 295.121 119.878 281.974 121.101C277.979 121.488 272.463 121.816 269.959 125.453C268.647 127.391 268.319 130.134 268.051 132.4C267.812 134.755 267.633 137.289 268.379 139.525Z" fill="#2FD9B3"/>
<path d="M89.5893 20.69C86.3695 23.1048 82.2255 23.5818 78.2305 23.6713C78.2603 23.4626 78.3199 23.2539 78.3795 23.075C80.7944 23.0154 83.2093 22.8067 85.5049 22.0912C88.7546 21.0775 90.9309 18.8117 93.1073 16.3074C94.7172 14.459 96.4762 12.1633 98.5035 10.3447C98.8017 10.3745 99.1296 10.4342 99.4277 10.464C99.2489 10.613 99.07 10.7621 98.8911 10.9112C95.5222 13.8627 93.1968 17.9769 89.5893 20.69Z" fill="#2FD9B3"/>
<path d="M105.242 12.2229C104.139 14.4291 102.529 16.6651 102.111 17.2315C98.504 22.0315 94.4494 27.1295 89.1724 30.2003C85.893 32.1084 82.4644 32.7941 78.9166 33.0028C78.857 32.8239 78.7974 32.6748 78.7676 32.496C79.334 32.4661 79.9303 32.4363 80.4967 32.3767C84.134 32.0189 87.4731 30.7668 90.4842 28.6798C95.2544 25.3706 99.2195 20.3619 102.529 15.6514C103.364 14.4887 104.109 13.2663 104.765 11.9844C104.914 12.044 105.093 12.1334 105.242 12.2229Z" fill="#2FD9B3"/>
<path d="M93.8224 44.7491C92.3615 44.7491 90.8411 44.5702 89.3802 44.1826C84.6995 42.9305 81.271 39.651 79.1542 34.4337C78.9754 34.0163 78.8263 33.5691 78.6474 33.0623C78.5878 32.8834 78.5282 32.7045 78.4685 32.5256C77.5145 29.4549 77.3356 26.4437 77.9319 23.5518C77.9617 23.3431 78.0213 23.1344 78.081 22.9257C78.4387 21.4947 78.9754 20.1233 79.6909 18.8413C79.8101 18.6326 79.9294 18.4239 80.0784 18.2152C81.4499 16.0389 83.3877 14.101 85.6834 12.6998C85.8921 12.5805 86.1306 12.4314 86.3691 12.2824C87.8299 11.4476 89.41 10.8215 91.0796 10.4041C91.3479 10.3445 91.646 10.2551 91.9442 10.1954C93.6137 9.83769 95.3429 9.71844 97.072 9.83769C97.6087 9.8675 98.1155 9.89731 98.5925 9.95694C98.8608 9.98675 99.159 10.0166 99.5167 10.0762C101.514 10.3743 103.333 10.911 104.913 11.6265C105.092 11.7159 105.241 11.7756 105.42 11.865C108.878 13.5942 111.353 16.4264 112.575 20.0338C113.648 23.1642 113.768 26.8909 112.903 30.5281C112.843 30.7368 112.784 30.9753 112.724 31.184C112.515 31.9592 112.277 32.7045 111.979 33.42C111.859 33.748 111.74 33.9865 111.621 34.225C110.577 36.5802 109.176 38.5479 107.537 39.9492C107.477 40.0088 107.417 40.0684 107.328 40.128C107.268 40.1877 107.179 40.2473 107.089 40.3069C104.615 42.364 99.3379 44.7491 93.8224 44.7491ZM95.8795 10.4638C94.5677 10.4638 93.2858 10.583 92.0038 10.8513C91.7355 10.911 91.4373 10.9706 91.169 11.0302C89.5591 11.4476 88.0386 12.0439 86.6076 12.8488C86.3691 12.9979 86.1306 13.1172 85.9219 13.2364C83.7157 14.6078 81.8374 16.4562 80.5256 18.573C80.4064 18.7817 80.2871 18.9904 80.1679 19.1991C79.4822 20.4214 78.9455 21.763 78.6176 23.1344C78.558 23.3431 78.5282 23.522 78.4685 23.7307C77.9021 26.5033 78.081 29.425 79.0052 32.4064C79.0648 32.5853 79.1244 32.7343 79.1542 32.9132C79.3033 33.3902 79.4822 33.8374 79.6312 34.2548C81.6586 39.2933 84.9678 42.4237 89.4696 43.646C96.2373 45.4646 103.631 42.364 106.702 39.979C106.791 39.9193 106.851 39.8597 106.91 39.8001C106.97 39.7405 107.03 39.7107 107.089 39.651C108.669 38.3094 110.011 36.4014 111.025 34.1356C111.144 33.8971 111.233 33.6585 111.353 33.3306C111.621 32.6151 111.889 31.8996 112.068 31.1542C112.128 30.9455 112.187 30.7368 112.247 30.4983C113.708 24.2673 112.605 16.2774 105.062 12.4911C104.913 12.4016 104.734 12.342 104.585 12.2526C103.035 11.537 101.276 11.0302 99.3379 10.7321C98.9801 10.6725 98.7118 10.6426 98.4435 10.6128C97.9664 10.5532 97.4894 10.5234 96.9528 10.4936C96.6248 10.4638 96.2671 10.4638 95.8795 10.4638Z" fill="#FD7960"/>
<path d="M283.376 188.421C282.69 191.67 280.216 193.966 277.294 195.248C277.056 195.367 276.817 195.457 276.579 195.546C275.833 195.814 275.088 196.053 274.313 196.202C270.795 196.917 267.247 196.083 265.011 193.459C264.892 193.31 264.802 193.191 264.683 193.042C264.415 192.684 264.176 192.326 263.967 191.909C262.864 189.792 262.298 187.198 262.507 184.694C262.536 184.306 262.596 183.919 262.656 183.531C262.894 182.219 263.341 180.967 264.057 179.864C265.458 177.688 267.724 176.108 270.228 175.511C270.348 175.482 270.467 175.452 270.556 175.422C270.795 175.362 271.033 175.333 271.302 175.273C273.478 174.885 276.221 174.796 278.874 176.764C279.441 177.181 279.977 177.658 280.454 178.195C280.573 178.344 280.723 178.493 280.842 178.642C281.14 179.029 281.438 179.417 281.677 179.834C281.826 180.073 281.975 180.341 282.094 180.58C283.406 183.024 283.942 185.857 283.376 188.421Z" fill="#FCCE44"/>
<path d="M35.5981 172.022C35.3 173.155 34.3758 173.93 33.3323 174.348C33.2429 174.377 33.1534 174.407 33.064 174.437C32.7957 174.527 32.5274 174.586 32.259 174.646C31.0069 174.854 29.7547 174.497 29.0094 173.513C28.9796 173.453 28.9498 173.423 28.8901 173.364C28.8007 173.245 28.7113 173.095 28.6516 172.946C28.2939 172.171 28.1448 171.247 28.2641 170.382C28.2939 170.233 28.2939 170.114 28.3237 169.965C28.4131 169.518 28.6218 169.071 28.8603 168.683C29.397 167.938 30.2019 167.431 31.0963 167.252C31.1261 167.252 31.1858 167.222 31.2156 167.222C31.305 167.222 31.3945 167.192 31.4839 167.192C32.259 167.103 33.2429 167.103 34.1373 167.848C34.346 167.997 34.5249 168.176 34.6739 168.385C34.7037 168.445 34.7634 168.504 34.7932 168.564C34.8826 168.713 35.0019 168.862 35.0615 169.011C35.1211 169.1 35.1509 169.19 35.2106 169.279C35.6876 170.114 35.8366 171.128 35.5981 172.022Z" fill="#F6F7FB"/>
<path d="M271.302 175.302C270.766 175.838 270.199 176.375 269.662 176.882C267.128 179.327 264.654 181.891 262.537 184.693C262.567 184.305 262.627 183.918 262.686 183.53C264.863 180.787 267.337 178.253 269.871 175.868C269.99 175.749 270.11 175.63 270.259 175.51C270.378 175.481 270.497 175.451 270.587 175.421C270.825 175.391 271.064 175.332 271.302 175.302Z" fill="white"/>
<path d="M274.014 185.11C272.076 187.137 270.109 189.224 268.022 191.102C267.157 191.907 266.143 192.802 265.011 193.458C264.891 193.309 264.802 193.189 264.683 193.04C267.306 191.49 269.87 188.389 271.122 187.137C272.792 185.408 274.491 183.709 276.131 181.98C277.413 180.638 278.814 179.207 280.424 178.253C280.543 178.402 280.692 178.551 280.812 178.7C278.158 180.161 276.071 182.963 274.014 185.11Z" fill="white"/>
<path d="M277.294 195.247C277.055 195.366 276.817 195.456 276.578 195.545C274.312 190.03 280.156 185.14 281.706 179.863C281.855 180.102 282.004 180.37 282.123 180.609C280.841 184.455 277.681 187.674 276.817 191.729C276.668 192.504 276.608 193.309 276.727 194.084C276.846 194.651 276.966 195.008 277.294 195.247Z" fill="white"/>
<path d="M11.0607 190.238L14.7874 188.896C13.5353 185.677 12.3725 182.427 11.1502 179.177C8.58624 172.29 5.96267 165.433 3.69685 158.457L0 159.769C2.14656 166.358 4.62107 172.827 7.03595 179.326C8.37755 182.964 9.65952 186.631 11.0607 190.238Z" fill="#B7EAED"/>
<path d="M307.644 95.9685L310.535 97.3996C311.46 95.3424 312.444 93.3449 313.398 91.3176C315.425 87.0245 317.422 82.7016 319.658 78.4979L316.766 77.0967C314.65 81.0619 312.771 85.1165 310.863 89.2009C309.79 91.4369 308.657 93.6729 307.644 95.9685Z" fill="#FCCE44"/>
<path d="M75.4872 44.1831C75.2189 44.3322 74.9804 44.5409 74.7419 44.7495C74.6525 44.7197 74.563 44.7495 74.5034 44.839C73.8475 45.5545 73.3407 46.3893 73.0425 47.3433C72.9829 47.5222 73.132 47.7607 73.3407 47.7309C74.8612 47.5222 75.7257 45.9421 75.9344 44.5409C75.9643 44.3023 75.7257 44.0638 75.4872 44.1831Z" fill="#597CE1"/>
<path d="M80.318 44.3916C79.0957 44.1531 78.5292 45.1071 78.0522 46.0313C77.5454 46.5978 77.0982 47.194 76.8299 47.9096C76.7404 48.1183 76.9789 48.327 77.1876 48.2673C78.8572 47.7903 80.2286 46.4785 80.5267 44.7494C80.5565 44.6003 80.4969 44.4214 80.318 44.3916Z" fill="#597CE1"/>
<path d="M112.039 72.3855C109.654 73.3097 107.03 73.3396 104.526 73.3396C101.753 73.3694 98.9804 73.4588 96.2376 73.5781C93.137 73.6973 90.0364 73.7569 86.9358 73.7569C84.4017 73.7569 81.8675 73.6079 79.3632 73.9358C78.0514 74.1147 74.8614 74.9495 73.8179 73.8166C72.8639 72.7731 73.013 70.2092 73.1322 68.9272C73.1919 68.0924 73.2217 67.3173 74.1459 67.0489C75.1297 66.7806 76.4117 67.0489 77.4253 67.1384C80.0191 67.3769 82.6427 66.9297 85.2066 66.8402C92.2724 66.5421 99.3382 67.0489 106.404 67.0191C106.791 67.0191 106.791 66.4229 106.404 66.4229C99.1593 66.4527 91.8848 65.8862 84.67 66.2738C81.8079 66.4229 79.0353 66.6316 76.1732 66.4229C74.8912 66.3334 73.2217 66.1247 72.7446 67.5856C72.2676 69.1061 72.4465 71.0141 72.7446 72.5644C73.0428 73.9656 73.5198 74.711 74.9806 74.86C76.9781 75.0389 78.9458 74.4725 80.9433 74.383C84.4911 74.234 88.0687 74.4128 91.6165 74.3532C95.4922 74.2936 99.3382 73.9955 103.214 73.9656C106.225 73.9358 109.385 74.0551 112.247 72.9818C112.545 72.8327 112.396 72.2365 112.039 72.3855Z" fill="#2FD9B3"/>
<path d="M249.15 36.5505C249.806 36.5207 250.492 36.461 251.147 36.461C252.638 36.461 254.129 36.5505 255.59 36.5803C258.78 36.6399 261.999 36.5803 265.189 36.5803V25.281C261.88 25.281 258.541 25.3705 255.232 25.281C253.205 25.2214 251.147 25.0723 249.12 25.2512V36.5505H249.15Z" fill="#B7EAED"/>
<path d="M304.274 34.9405C304.274 30.707 300.786 27.2785 296.552 27.3679C268.498 27.9046 240.563 27.4276 212.449 27.5468C176.047 27.7257 139.675 28.5306 103.273 28.6201L103.094 84.9673C103.094 88.4853 105.926 91.3473 109.444 91.3175C143.7 91.2579 177.985 91.3175 212.24 91.1386C240.026 91.0194 267.812 89.9759 295.598 89.171C300.428 89.0219 304.274 85.0865 304.274 80.2568V34.9405Z" fill="#597CE1" fill-opacity="0.2"/>
<path d="M105.599 75.9925C108.133 75.4261 110.697 75.1279 113.231 74.6509C116.54 74.0249 122.443 72.9516 121.519 68.3305C120.118 61.4436 112.217 58.4623 108.401 53.245C103.452 46.4773 105.36 36.2215 110.726 30.2887C111.263 29.7222 111.8 29.1558 112.426 28.6191C109.385 28.649 106.314 28.649 103.273 28.649L103.124 76.6782C103.929 76.3801 104.794 76.1714 105.599 75.9925Z" fill="#597CE1"/>
<path d="M142.507 34.3741C145.817 34.7318 148.917 33.3604 151.899 32.0188C154.492 30.8561 157.086 29.6039 159.531 28.1133C149.543 28.2325 139.556 28.3816 129.568 28.471C131.327 32.0188 139.884 34.1058 142.507 34.3741Z" fill="#FCCE44"/>
<path d="M302.188 70.0905C298.133 72.2967 293.929 73.8768 289.398 74.7712C280.186 76.6196 270.884 74.2047 261.612 74.324C254.963 74.4134 247.749 75.6954 242.293 79.75C239.997 81.4494 238.029 83.596 236.27 85.8618C234.989 87.5015 233.856 89.2307 232.663 90.93C253.652 90.5425 274.61 89.8269 295.569 89.2009C300.399 89.0518 304.245 85.1164 304.245 80.2867V68.8682C303.589 69.2856 302.874 69.7029 302.188 70.0905Z" fill="#2FD9B3"/>
<path d="M207.949 62.578C208.485 62.5482 208.992 62.4886 209.529 62.4886C210.692 62.4886 211.884 62.578 213.047 62.6079C215.581 62.6675 218.115 62.6079 220.649 62.6079V51.0701C218.026 51.0701 215.372 51.1595 212.749 51.0701C211.139 51.0105 209.529 50.8614 207.919 51.0403V62.578H207.949Z" fill="#597CE1"/>
<path d="M181.623 46.3587C181.593 45.9413 181.533 45.5239 181.533 45.1065C181.533 44.1823 181.623 43.2283 181.623 42.3041C181.682 40.2768 181.623 38.2494 181.623 36.252H172.44C172.44 38.3389 172.53 40.4556 172.44 42.5426C172.381 43.8245 172.291 45.1065 172.41 46.3885H181.623V46.3587Z" fill="#B7EAED"/>
<path d="M234.064 69.3454C231.381 69.3752 228.698 69.4348 225.985 69.4348C219.992 69.4348 214 69.3454 207.978 69.3156C195.068 69.2559 182.07 69.3156 169.131 69.3156V80.8533C182.517 80.8533 195.993 80.7639 209.379 80.8533C217.548 80.9129 225.866 81.062 234.064 80.8831V69.3454Z" fill="#FCCE44"/>
<path d="M298.76 35.6259C298.402 35.9837 297.985 36.252 297.508 36.4011C297.061 36.5501 296.584 36.5501 296.107 36.3712C295.182 36.0135 294.497 34.9998 294.437 34.016C294.407 33.1812 294.854 32.6148 295.242 32.257C295.57 31.929 295.987 31.7204 296.434 31.6309C296.584 31.6011 296.762 31.5713 296.911 31.5713C297.865 31.6011 298.79 32.257 299.237 33.0918C299.744 33.9564 299.446 34.9402 298.76 35.6259Z" fill="#F34857"/>
<path d="M278.874 47.5221C278.427 47.5519 277.98 47.6116 277.503 47.6116C276.489 47.6116 275.475 47.5221 274.462 47.4923C272.285 47.4327 270.109 47.4923 267.933 47.4923V57.3904C270.198 57.3904 272.464 57.3009 274.7 57.3904C276.072 57.45 277.473 57.5692 278.844 57.4202V47.5221H278.874Z" fill="#F87B4A"/>
<path d="M278.874 59.8942C278.427 59.924 277.98 59.9836 277.503 59.9836C276.489 59.9836 275.475 59.8942 274.462 59.8644C272.285 59.8048 270.109 59.8644 267.933 59.8644V69.7624C270.198 69.7624 272.464 69.673 274.7 69.7624C276.072 69.8221 277.473 69.9413 278.844 69.7922V59.8942H278.874Z" fill="#F87B4A"/>
<path d="M265.518 59.8942C265.07 59.924 264.623 59.9836 264.146 59.9836C263.133 59.9836 262.119 59.8942 261.105 59.8644C258.929 59.8048 256.753 59.8644 254.576 59.8644V69.7624C256.842 69.7624 259.108 69.673 261.344 69.7624C262.715 69.8221 264.116 69.9413 265.488 69.7922V59.8942H265.518Z" fill="#F87B4A"/>
<path d="M292.2 59.8942C291.753 59.924 291.306 59.9836 290.829 59.9836C289.815 59.9836 288.802 59.8942 287.788 59.8644C285.612 59.8048 283.435 59.8644 281.259 59.8644V69.7624C283.525 69.7624 285.79 69.673 288.026 69.7624C289.398 69.8221 290.799 69.9413 292.17 69.7922V59.8942H292.2Z" fill="#DEE5F9"/>
<path d="M127.631 67.2589C126.558 66.7223 125.484 66.2155 124.411 65.6788C124.918 64.6056 125.395 63.5025 125.872 62.4292C126.975 59.9845 128.078 57.5398 129.33 55.1845C130.642 52.6802 132.073 50.2355 133.296 47.6716C134.309 45.5847 135.025 43.3487 136.009 41.2617L139.199 42.8418C138.155 45.0182 137.41 47.3436 136.336 49.52C135.144 51.9647 133.773 54.3498 132.52 56.7647C131.268 59.1199 130.165 61.5646 129.092 64.0093C128.615 65.0826 128.138 66.1857 127.631 67.2589Z" fill="#2FD9B3"/>
<path d="M143.194 71.0448L141.613 74.2348C139.079 72.5951 136.158 71.5516 133.474 70.21C131.537 69.2262 129.569 68.2423 127.631 67.2585C126.558 66.7218 125.484 66.215 124.411 65.6784C124.918 64.6051 125.395 63.502 125.872 62.4287C126.945 62.9355 128.019 63.4722 129.092 64.0088C131.268 65.0821 133.415 66.1852 135.561 67.2585C138.125 68.5404 140.779 69.5541 143.194 71.0448Z" fill="#2FD9B3"/>
<path d="M260.48 61.9517C260.48 61.8325 260.48 61.6834 260.45 61.5642C261.583 59.2387 262.686 56.9431 263.879 54.6475H261.851C261.315 55.7207 260.778 56.794 260.241 57.8673C259.914 58.5232 259.586 59.1791 259.258 59.8648C258.989 59.4176 258.721 58.9406 258.482 58.4934C257.767 57.2114 257.051 55.9592 256.336 54.6475H254.309C255.591 57.0623 256.962 59.4176 258.304 61.8027C258.423 62.0114 258.542 62.2499 258.661 62.4586C258.691 63.2635 258.721 64.0685 258.751 64.8734C258.781 65.4995 258.781 66.1256 258.81 66.7219H260.599C260.599 66.4535 260.599 66.1852 260.599 65.9467C260.599 64.6051 260.54 63.2933 260.48 61.9517Z" fill="#597CE1"/>
<path d="M232.573 33.48C232.484 33.0924 231.947 33.0626 231.768 33.3607C231.679 33.48 231.619 33.5992 231.53 33.6887C231.351 33.5992 231.112 33.629 230.963 33.8377C230.248 34.8812 229.473 35.8352 229.145 37.0874C229.025 37.475 229.473 37.7731 229.801 37.5942C231.053 36.9085 232.961 35.1495 232.573 33.48Z" fill="#2F2F2F"/>
<path d="M240.713 34.0174C240.683 33.8088 240.563 33.6597 240.414 33.6001C240.265 33.3615 239.848 33.2423 239.639 33.5702C239.52 33.7789 239.371 33.9876 239.192 34.1963C239.013 34.3752 238.834 34.5839 238.685 34.8224C237.94 35.687 237.195 36.5516 236.926 37.7143C236.837 38.0721 237.135 38.3404 237.463 38.2509C239.132 37.923 240.832 35.687 240.713 34.0174Z" fill="#2F2F2F"/>
<path d="M248.792 33.8391C248.762 33.6304 248.613 33.3621 248.345 33.3919C247.003 33.5708 246.526 35.0019 245.9 36.0751C245.811 36.1944 245.721 36.3434 245.632 36.4627C245.602 36.5223 245.543 36.582 245.513 36.6416C245.423 36.731 245.394 36.8205 245.394 36.9099C245.364 36.9993 245.334 37.0888 245.274 37.1484C245.215 37.2379 245.185 37.2975 245.185 37.3869C245.155 37.536 245.095 37.6552 245.095 37.8043C245.036 38.1621 245.394 38.5198 245.751 38.3111C247.212 37.4764 249.031 35.6577 248.792 33.8391Z" fill="#2F2F2F"/>
<path d="M228.668 42.0369C227.982 42.1263 227.564 42.4841 227.296 42.9611C226.64 43.7661 226.074 44.6307 226.014 45.7039C225.984 46.0319 226.402 46.2704 226.7 46.0915C227.922 45.2567 228.668 44.0046 229.115 42.6034C229.204 42.3649 228.966 42.0071 228.668 42.0369Z" fill="#2F2F2F"/>
<path d="M236.867 42.3949C236.926 42.0073 236.449 41.6198 236.121 41.9775C235.167 43.0806 233.08 44.6309 233.289 46.3005C233.319 46.5986 233.527 46.7775 233.855 46.7178C235.644 46.3899 236.688 44.5117 237.105 42.8719C237.195 42.693 237.045 42.4843 236.867 42.3949Z" fill="#2F2F2F"/>
<path d="M244.887 41.7379C244.827 41.7677 244.797 41.8273 244.738 41.8572C244.589 41.7975 244.44 41.8273 244.291 41.9764C243.486 42.9901 242.233 43.9739 241.965 45.3155C241.876 45.4646 241.786 45.6435 241.697 45.7925C241.428 46.2695 242.084 46.6869 242.412 46.3292C242.502 46.3292 242.621 46.2993 242.681 46.2099C243.933 45.077 245.394 43.8248 245.632 42.036C245.722 41.6485 245.155 41.4994 244.887 41.7379Z" fill="#2F2F2F"/>
<path d="M178.761 41.4697C177.688 41.4697 176.644 41.589 175.571 41.5592C175.183 41.5592 175.183 42.1554 175.571 42.1554C176.644 42.1852 177.688 42.066 178.761 42.066C179.149 42.066 179.149 41.4697 178.761 41.4697Z" fill="white"/>
<path d="M275.773 63.3523C274.074 63.7399 272.315 63.4716 270.586 63.4418C270.198 63.4418 270.198 64.038 270.586 64.038C272.374 64.0678 274.163 64.3362 275.922 63.9188C276.31 63.8293 276.131 63.2629 275.773 63.3523Z" fill="white"/>
<path d="M275.654 66.1261C273.925 66.1559 272.196 66.3646 270.467 66.0366C270.079 65.977 269.93 66.5434 270.317 66.6031C272.106 66.931 273.865 66.7223 275.654 66.7223C276.042 66.7223 276.042 66.1261 275.654 66.1261Z" fill="white"/>
<path d="M182.875 0.982715C181.712 4.56032 180.55 8.10811 179.357 11.6857C179.298 11.8944 179.238 12.0733 179.148 12.282C177.717 16.6347 176.257 20.9875 174.826 25.3104C174.587 26.0557 174.319 26.8309 174.08 27.5762C174.021 27.7849 173.961 27.9638 173.901 28.1725C172.232 33.2407 170.592 38.3388 169.012 43.4369C168.952 43.6456 168.893 43.8245 168.833 44.0332C167.253 49.1014 165.732 54.1697 164.272 59.2678C164.212 59.4765 164.152 59.6554 164.093 59.8641C163.288 62.6367 162.542 65.4391 161.797 68.2118C159.889 75.367 157.415 82.3433 155.656 89.5283C155.119 91.7345 154.851 94.0003 154.403 96.2363C154.224 96.2363 154.016 96.2363 153.837 96.2363C153.956 95.491 154.075 94.7755 154.165 94.1196C154.672 91.019 155.387 88.0079 156.222 84.9669C158.19 77.9906 160.336 71.1037 162.274 64.1274C162.662 62.6963 163.079 61.2653 163.467 59.8342C163.526 59.6255 163.586 59.4467 163.646 59.238C165.106 54.1399 166.627 49.0716 168.207 44.0034C168.267 43.7947 168.326 43.6158 168.386 43.4071C168.445 43.2282 168.505 43.0493 168.565 42.8705C170.115 37.9513 171.695 33.0321 173.305 28.1427C173.365 27.934 173.424 27.7551 173.514 27.5464C175.183 22.4483 176.883 17.3502 178.582 12.2223C178.642 12.0137 178.701 11.8348 178.791 11.6261C179.983 8.01867 181.176 4.41125 182.368 0.803837C182.428 0.446077 182.994 0.595141 182.875 0.982715Z" fill="#597CE1"/>
<path d="M219.842 0.983162C218.68 4.56076 217.487 8.13836 216.295 11.716C216.235 11.9247 216.175 12.1035 216.086 12.3122C214.655 16.6352 213.224 20.9581 211.793 25.3108C211.554 26.086 211.286 26.8611 211.018 27.6363C210.958 27.845 210.898 28.0239 210.839 28.2325C209.169 33.3306 207.529 38.3989 205.949 43.497C205.89 43.7057 205.83 43.8846 205.771 44.0933C204.19 49.1615 202.67 54.2596 201.209 59.3577C201.149 59.5664 201.09 59.7453 201.03 59.9539C200.255 62.6968 199.48 65.4694 198.735 68.2421C196.827 75.3973 194.352 82.3736 192.593 89.5586C192.056 91.7648 191.788 94.0306 191.341 96.2666C191.162 96.2666 190.953 96.2666 190.774 96.2666C190.894 95.5213 191.013 94.8057 191.102 94.1498C191.609 91.0493 192.325 88.0381 193.159 84.9972C195.127 78.0208 197.274 71.1339 199.212 64.1576C199.599 62.7564 199.987 61.3552 200.374 59.9838C200.434 59.7751 200.494 59.5962 200.553 59.3875C202.014 54.2894 203.535 49.1913 205.115 44.1231C205.174 43.9144 205.234 43.7355 205.294 43.5268C205.353 43.3479 205.413 43.1392 205.472 42.9604C207.023 38.0411 208.603 33.1518 210.183 28.2624C210.243 28.0537 210.302 27.8748 210.392 27.6661C212.061 22.568 213.76 17.4699 215.46 12.3719C215.519 12.1632 215.579 11.9843 215.669 11.7756C216.861 8.13837 218.054 4.53095 219.246 0.893726C219.395 0.446526 219.962 0.595589 219.842 0.983162Z" fill="#597CE1"/>
<path d="M201.21 59.3282C201.15 59.5369 201.09 59.7158 201.031 59.9245C200.822 59.9245 200.613 59.9245 200.405 59.9245C188.3 59.8351 176.196 60.2226 164.092 59.8351C163.883 59.8351 163.675 59.8351 163.466 59.8053C163.525 59.5966 163.585 59.4177 163.645 59.209C163.853 59.209 164.062 59.209 164.271 59.2388C176.375 59.6264 188.479 59.209 200.583 59.3282C200.792 59.3282 201.001 59.3282 201.21 59.3282Z" fill="#597CE1"/>
<path d="M197.184 74.9796C197.125 75.1883 197.065 75.3672 197.005 75.5759C196.797 75.5759 196.588 75.5759 196.379 75.5759C184.275 75.4864 172.171 75.874 160.067 75.4864C159.858 75.4864 159.649 75.4864 159.44 75.4566C159.5 75.2479 159.56 75.069 159.619 74.8604C159.828 74.8604 160.037 74.8603 160.245 74.8902C172.35 75.2777 184.454 74.8603 196.558 74.9796C196.767 74.9796 196.975 74.9796 197.184 74.9796Z" fill="#597CE1"/>
<path d="M205.981 43.4673C205.921 43.676 205.861 43.8549 205.802 44.0636C205.593 44.0636 205.384 44.0636 205.176 44.0636C193.071 43.8847 180.937 44.2723 168.833 44.0337C168.624 44.0337 168.416 44.0338 168.207 44.0039C168.267 43.7952 168.326 43.6164 168.386 43.4077C168.595 43.4077 168.803 43.4077 169.012 43.4077C181.116 43.6462 193.25 43.2288 205.354 43.4375C205.563 43.4673 205.772 43.4673 205.981 43.4673Z" fill="#597CE1"/>
<path d="M211.048 27.6064C210.988 27.8151 210.929 27.994 210.869 28.2027C210.66 28.2027 210.452 28.2027 210.243 28.2027C198.139 27.9642 186.005 28.3518 173.9 28.1729C173.692 28.1729 173.483 28.1729 173.274 28.1729C173.334 27.9642 173.394 27.7853 173.483 27.5766C173.692 27.5766 173.9 27.5766 174.109 27.5766C186.213 27.7555 198.347 27.3381 210.452 27.6064C210.631 27.6064 210.839 27.6064 211.048 27.6064Z" fill="#597CE1"/>
<path d="M216.295 11.7158C216.236 11.9245 216.176 12.1034 216.087 12.3121C215.878 12.3121 215.669 12.3121 215.461 12.3121C203.357 12.0736 191.222 12.4611 179.118 12.2823C178.91 12.2823 178.701 12.2823 178.492 12.2823C178.552 12.0736 178.611 11.8947 178.701 11.686C178.91 11.686 179.118 11.686 179.327 11.686C191.431 11.8649 203.565 11.4475 215.669 11.7158C215.908 11.686 216.117 11.7158 216.295 11.7158Z" fill="#597CE1"/>
<path d="M40.5757 96.207C33.3012 98.8604 34.3745 114.721 34.5236 124.589C34.6726 134.458 49.6389 126.766 56.9134 124.112C64.2176 121.459 40.5757 96.207 40.5757 96.207Z" fill="#FD7960"/>
<path d="M29.7831 114.811C29.6042 116.57 29.4253 118.358 29.2762 120.117C29.0675 122.383 29.2464 124.768 31.0054 126.259C33.301 128.227 36.6103 128.107 39.5917 127.779L40.1581 115.258L29.7831 114.811Z" fill="#F34857"/>
<path d="M42.9011 83.3281L51.1892 91.5566L46.1508 94.5677L40.0391 86.3393L42.9011 83.3281Z" fill="#FFAF90"/>
<path d="M45.6732 88.2771C46.5676 88.5455 47.4023 88.6647 48.2371 88.6349L42.9005 83.3281L40.6943 85.7728C42.2148 86.9355 43.8247 87.7405 45.6732 88.2771Z" fill="#F87B4A"/>
<path d="M43.2886 85.2958C42.901 85.9815 42.3644 86.6374 41.6787 87.0846C41.0526 87.5318 40.2774 87.7703 39.4725 87.6809C37.8626 87.5318 36.3123 86.2499 35.7756 84.7592C35.3284 83.4474 35.8054 82.3741 36.2228 81.6288C36.5806 80.9729 37.1172 80.4363 37.7731 80.0785C38.0116 79.9592 38.2501 79.84 38.5185 79.7804C40.0091 79.363 41.7681 80.0189 42.8414 81.0922C44.0339 82.2549 44.0339 83.8946 43.2886 85.2958Z" fill="#FFAF90"/>
<path d="M40.9631 85.8927C41.5892 86.3995 41.2911 87.4132 40.5159 87.5921C40.188 87.6815 39.8302 87.7113 39.4725 87.6815C37.8626 87.5324 36.3123 86.2505 35.7756 84.7598C35.3284 83.448 35.8054 82.3747 36.2228 81.6294C36.5806 80.9735 37.1172 80.4369 37.7731 80.0791C37.6241 80.5859 37.2067 81.1822 37.952 81.7785C38.5483 82.2257 38.9955 82.8816 39.1147 83.6269C39.2042 84.2232 39.383 84.7598 39.8899 85.1772C40.188 85.4157 40.5159 85.6244 40.8439 85.8331C40.9035 85.8629 40.9333 85.8927 40.9631 85.8927Z" fill="#F34857"/>
<path d="M39.5627 82.8213C38.1317 83.8946 37.7441 85.3256 38.877 86.3393C39.831 87.174 41.4111 86.4585 41.7093 85.8623L39.5627 82.8213Z" fill="#FFAF90"/>
<path d="M41.7089 79.8994C41.4704 80.1379 41.202 80.2869 40.8741 80.3168C40.6952 80.3168 40.725 80.6149 40.9039 80.6149C41.3213 80.5851 41.679 80.3764 41.9474 80.0783C42.0666 79.959 41.8281 79.7503 41.7089 79.8994Z" fill="#2F2F2F"/>
<path d="M40.3082 81.689L40.7256 81.8679C40.9045 81.9573 41.0237 81.689 40.8449 81.5996L40.4275 81.4207C40.2486 81.3611 40.1293 81.6294 40.3082 81.689Z" fill="#2F2F2F"/>
<path d="M40.7845 84.6401C40.5161 84.6699 40.2776 84.6401 40.0689 84.4612C39.9199 84.342 39.741 84.5805 39.8901 84.6997C40.1584 84.9382 40.4863 84.9979 40.8143 84.9382C40.9932 84.9084 40.9633 84.6103 40.7845 84.6401Z" fill="#2F2F2F"/>
<path d="M114.751 97.816C114.751 97.816 117.464 97.4881 117.405 95.908C117.375 95.1328 116.093 94.8943 114.811 94.8347C116.003 94.6856 117.136 94.3577 117.017 93.5527C116.749 91.9428 114.99 92.1515 108.341 92.6583C105.032 92.8968 99.0694 93.1652 93.8818 93.3738C94.5675 97.19 95.3725 100.976 96.2073 104.763C113.171 103.779 116.689 104.136 116.749 102.288C116.778 100.976 115.586 100.857 114.96 100.887C115.705 100.797 117.434 100.469 117.464 99.5154C117.494 98.2931 116.451 97.9353 114.751 97.816Z" fill="#F87B4A"/>
<path d="M97.46 104.674C96.1482 104.763 94.7768 104.823 93.2861 104.912C80.377 105.717 76.859 105.389 68.0641 101.454C67.4976 101.186 66.9013 100.917 66.2753 100.649C66.2454 100.649 66.2454 100.619 66.2156 100.619C62.4591 98.8901 57.689 96.5647 51.1003 93.4939L49.3711 92.8977C50.7723 90.8107 53.0083 89.3499 55.2145 88.5449C55.6319 88.3959 56.0195 88.2766 56.407 88.1574C58.0468 87.74 59.5673 87.6803 60.6405 88.0083L61.2964 88.1872L79.4826 92.9573C79.4826 92.9573 90.1259 93.4939 96.3569 93.2256C96.7147 97.0715 97.0724 100.888 97.46 104.674Z" fill="#2F2F2F"/>
<path d="M104.198 93.4046C109.803 89.0817 111.234 87.5314 112.248 88.5451C113.261 89.5587 111.711 91.3773 108.879 94.0903C106.047 96.8034 104.198 93.4046 104.198 93.4046Z" fill="#F87B4A"/>
<path d="M68.7191 107.179C60.8483 110.13 52.9776 113.171 45.1367 116.182C45.8821 117.673 46.687 119.253 47.5516 120.982C47.5516 120.982 81.6282 140.838 77.1264 129.3C74.5029 122.622 71.4619 114.453 68.7191 107.179Z" fill="#597CE1"/>
<path d="M124.648 175.481C122.472 176.972 120.087 180.162 119.371 181.175C117.195 177.747 110.516 167.163 106.194 160.396C103.51 156.222 99.6942 149.752 97.3688 147.546C93.0757 143.462 71.9976 119.641 72.1765 119.372C69.5231 119.134 68.748 124.918 66.1244 124.172C66.0946 124.172 67.794 130.433 67.3468 133.623C67.1381 135.114 68.8076 137.141 68.5989 138.632C77.0063 146.324 90.2434 161.022 90.2434 161.022C90.2434 161.022 91.4061 165.673 92.9862 169.817C94.4471 173.692 99.3663 179.059 99.6644 181.235C100.022 183.888 100.827 185.588 105.657 188.927C107.326 190.09 113.528 196.41 113.826 196.44C113.826 196.44 119.52 186.691 122.68 181.414C125.751 176.167 127.242 173.722 124.648 175.481Z" fill="#597CE1"/>
<path d="M91.0186 159.62C90.8695 155.924 90.9887 152.406 88.1863 149.633C85.2944 146.771 82.2534 144.117 79.5106 141.047C74.8299 135.8 66.8399 124.381 66.1244 124.202C66.0946 124.202 67.794 130.463 67.3468 133.653C67.1381 135.144 68.8076 137.171 68.5989 138.662C77.0063 146.353 90.2434 161.051 90.2434 161.051C90.2434 161.051 90.6608 162.661 91.2869 164.808C91.1676 163.079 91.0782 161.35 91.0186 159.62Z" fill="#496FDA"/>
<path d="M124.649 175.481C122.473 176.972 120.087 180.162 119.372 181.176C118.746 180.162 117.732 178.582 116.51 176.644C114.691 179.238 113.141 182.1 111.442 184.694C110.16 186.661 108.878 188.659 107.596 190.656C110.07 192.922 113.558 196.44 113.767 196.47C113.767 196.47 119.461 186.721 122.622 181.444C125.752 176.167 127.243 173.722 124.649 175.481Z" fill="#F87B4A"/>
<path d="M80.2876 155.536C79.2143 152.495 76.4417 145.518 73.4305 138.661C69.2865 129.24 65.4406 120.416 65.4406 120.416L59.5077 121.25L48.5364 119.968L46.8967 119.76C47.0159 120.088 47.165 120.535 47.4035 121.072C47.5228 121.4 47.6718 121.727 47.8507 122.115C49.2519 125.365 51.8159 130.791 54.5289 136.396C59.4481 146.532 64.9039 157.325 64.9039 157.325C64.9039 157.325 61.3263 160.216 57.9276 160.753C54.5289 161.29 55.2444 164.301 52.8593 167.759C50.4743 171.218 45.1675 170.114 42.693 174.259C40.2185 178.403 38.9067 178.403 37.4458 179.893C35.6869 182.487 29.4261 188.867 29.1279 190.03C29.1279 190.03 49.4904 200.137 51.5177 201.091C53.5451 202.045 52.5016 199.481 45.883 194.889C45.4358 194.949 47.9103 192.862 50.1165 190.715C55.9897 185.707 73.2517 171.158 77.187 167.074C81.9572 162.154 82.7621 162.542 80.2876 155.536Z" fill="#597CE1"/>
<path d="M68.3019 153.36C66.1255 146.86 63.0548 140.719 60.2523 134.488C56.943 127.213 53.3654 119.998 49.0425 113.261C48.8338 112.933 48.2972 113.201 48.5059 113.529C52.2027 119.283 55.3331 125.365 58.225 131.536C61.1169 137.678 64.1579 143.849 66.5727 150.199C67.1392 151.66 67.5864 153.151 68.123 154.612C68.6597 156.043 69.2858 157.593 69.2858 159.143C69.2858 162.154 66.2448 163.407 64.0386 164.689C62.9057 165.344 62.0709 166.388 60.938 167.014C59.507 167.819 57.7182 167.431 56.1977 168.147C53.8722 169.25 52.3816 171.456 50.7419 173.334C48.4462 175.928 45.5245 177.777 42.9606 180.102C40.2774 182.547 37.7134 185.26 35.3582 188.062C35.1197 188.36 35.6265 188.688 35.865 188.39C38.2203 185.588 40.814 182.845 43.5568 180.37C45.9419 178.224 48.6847 176.465 50.8611 174.08C52.8288 171.933 54.6176 168.922 57.6884 168.266C59.0598 167.968 60.3417 168.147 61.5641 167.312C62.7268 166.507 63.7107 165.553 64.9628 164.867C66.8112 163.854 68.9578 162.751 69.6435 160.604C70.4485 158.159 69.0472 155.596 68.3019 153.36Z" fill="#2F2F2F"/>
<path d="M66.5725 159.322C66.3638 158.606 65.8868 158.01 65.3799 157.503C65.1712 157.265 64.8433 157.503 64.8731 157.742C64.8433 157.801 64.8433 157.891 64.9029 157.98C65.2607 158.547 65.5588 159.202 66.1253 159.62C66.334 159.799 66.6619 159.56 66.5725 159.322Z" fill="#2F2F2F"/>
<path d="M90.8103 158.249L90.6612 161.23C90.6314 161.618 91.2277 161.648 91.2575 161.26L91.4066 158.279C91.4364 157.891 90.8401 157.861 90.8103 158.249Z" fill="#2F2F2F"/>
<path d="M67.1682 126.408C66.9297 126.289 66.721 126.259 66.4825 126.2C66.4229 126.17 66.3931 126.17 66.3334 126.2C66.0949 126.11 65.8564 126.051 65.6179 125.961C65.4987 125.902 65.3496 125.872 65.2303 125.842C64.8726 125.753 64.6937 126.289 65.0515 126.408C65.1409 126.438 65.2601 126.468 65.3496 126.498C65.3496 126.587 65.4092 126.677 65.5285 126.736C65.916 126.856 66.2738 126.945 66.6614 126.945H66.6912C66.7806 126.945 66.8701 126.975 66.9595 126.975C67.2576 126.975 67.4365 126.558 67.1682 126.408Z" fill="#2F2F2F"/>
<path d="M45.8225 194.919C45.4051 194.979 47.3131 193.339 49.3106 191.461C44.1231 189.106 38.9058 186.87 33.8375 184.246C31.6015 186.78 29.2463 189.374 29.0674 190.09C29.0674 190.09 49.4299 200.196 51.4572 201.15C53.5143 202.104 52.4708 199.54 45.8225 194.919Z" fill="#F87B4A"/>
<path d="M145.906 137.796C134.696 141.613 129.33 136.604 124.232 131.297C124.053 131.118 123.904 130.969 123.755 130.79C120.774 127.69 117.852 124.559 113.857 123.099C113.678 123.039 113.469 122.979 113.29 122.92C113.201 122.89 113.082 122.86 112.992 122.83C107.059 121.131 102.677 118.269 100.143 114.542C100.024 114.363 99.9043 114.184 99.785 114.005C99.0695 112.843 98.503 111.591 98.1453 110.279C98.0558 109.981 97.9962 109.683 97.9366 109.384C97.2509 106.075 97.6683 102.348 99.3676 98.3535C102.677 90.5125 109.713 89.4393 116.093 90.9001C116.361 90.9597 116.6 91.0194 116.868 91.079C119.551 91.7647 122.056 92.8976 124.143 94.12C124.351 94.2392 124.53 94.3585 124.709 94.4777C125.216 94.7759 125.663 95.1038 126.08 95.4019C126.468 95.7001 126.826 95.9386 127.154 96.1771C127.333 96.2963 127.482 96.4156 127.631 96.5348C130.672 98.7112 131.864 98.9795 142.478 101.066C161.111 104.704 164.51 131.476 145.906 137.796Z" fill="#597CE1"/>
<path d="M116.867 91.0798C112.395 94.1208 108.162 97.6089 104.554 101.634C102.676 103.721 100.917 105.957 99.3368 108.252C98.8896 108.878 98.4722 109.564 98.1442 110.25C98.0548 109.952 97.9952 109.654 97.9355 109.355C98.6213 108.133 99.5157 107.03 100.321 105.927C101.871 103.87 103.451 101.872 105.24 100.024C108.519 96.5952 112.216 93.5543 116.122 90.8711C116.36 90.9307 116.599 90.9904 116.867 91.0798Z" fill="white"/>
<path d="M114.78 102.08C112.544 103.988 110.338 105.867 108.162 107.804C106.164 109.563 104.316 111.531 102.229 113.201C101.662 113.648 100.917 114.214 100.142 114.542C100.023 114.363 99.9034 114.184 99.7842 114.006C99.9631 113.946 100.142 113.857 100.321 113.767C102.438 112.664 104.077 110.667 105.836 109.086C107.804 107.298 109.801 105.568 111.799 103.869C115.585 100.619 119.401 97.34 123.545 94.5375C123.665 94.4481 123.873 94.299 124.142 94.1201C124.35 94.2394 124.529 94.3586 124.708 94.4779C123.724 95.1338 122.74 95.7897 121.786 96.4754C119.372 98.2344 117.046 100.142 114.78 102.08Z" fill="white"/>
<path d="M125.99 98.7114C124.38 100.768 122.889 102.915 121.518 105.121C118.984 109.206 116.658 113.558 115.078 118.09C114.542 119.64 114.065 121.369 113.826 123.099C113.647 123.039 113.439 122.979 113.26 122.92C113.349 122.145 113.498 121.399 113.677 120.684C114.81 116.033 117.046 111.561 119.431 107.417C120.832 104.972 122.383 102.587 124.022 100.291C124.798 99.248 125.632 98.2343 126.407 97.1909C126.616 96.8927 126.884 96.5648 127.153 96.207C127.332 96.3263 127.481 96.4455 127.63 96.5648C127.123 97.3101 126.527 98.0257 125.99 98.7114Z" fill="white"/>
<path d="M131.267 118.507C129.329 121.13 127.481 123.814 125.96 126.676C125.185 128.137 124.797 129.746 124.231 131.297C124.052 131.118 123.903 130.969 123.754 130.79C123.843 130.522 123.903 130.283 123.992 130.045C125.394 125.662 128.047 121.876 130.76 118.209C130.969 117.881 131.505 118.179 131.267 118.507Z" fill="white"/>
<path d="M69.1967 108.461C61.475 111.651 53.7534 114.87 45.9125 117.762C36.5809 99.3079 34.7026 97.0421 40.5461 94.4782C40.6951 94.4185 40.8144 94.3589 40.9634 94.2993C42.1262 93.7924 43.1994 93.3154 44.2131 92.8682C44.3025 92.8384 44.3622 92.8086 44.4516 92.7788C47.2839 91.5564 49.6093 90.5428 51.5472 89.7975C59.5073 86.7565 60.998 87.8596 63.4725 93.7924C64.993 97.4297 67.0203 102.707 69.1967 108.461Z" fill="#2F2F2F"/>
<path d="M65.8578 98.7418C64.5759 96.4461 63.4131 94.0909 62.1908 91.7655C62.0119 91.4375 61.4753 91.7058 61.6542 92.0338C62.8765 94.3592 64.0392 96.7145 65.3212 99.0101C65.5001 99.3679 66.0367 99.0995 65.8578 98.7418Z" fill="#597CE1"/>
<path d="M54.3201 95.9394C54.3201 95.9394 51.1003 94.7767 44.1836 92.8686C47.1053 91.5867 49.5202 90.573 51.5177 89.7979L54.3201 95.9394Z" fill="#FFAF90"/>
<path d="M64.2178 104.764C60.7893 101.872 57.2415 99.0699 53.2167 97.0128C49.341 95.0153 45.1969 94.5383 40.9336 94.2998C42.0963 93.793 43.1696 93.3159 44.1832 92.8687C44.2727 92.8389 44.3323 92.8091 44.4218 92.7793C47.4627 93.1072 50.444 93.7035 53.2763 95.0749C57.6589 97.1917 61.475 100.173 65.2016 103.303C66.0662 103.989 65.1122 105.51 64.2178 104.764Z" fill="#FD7960"/>
<path d="M68.0042 103.572C68.0042 103.9 67.8253 104.138 67.5868 104.287C67.0501 104.585 66.1855 104.317 66.2154 103.512C66.2452 102.618 66.275 101.723 66.2452 100.829C66.2452 100.769 66.2452 100.739 66.2452 100.68C66.1855 98.265 65.798 95.9097 64.4564 93.793C63.8303 92.8092 63.085 91.9147 62.1906 91.1396C60.6104 89.7384 58.7024 88.6949 56.6751 88.2775C56.5856 88.2477 56.4664 88.2477 56.377 88.2179C58.0167 87.8005 59.5372 87.7409 60.6105 88.0688L61.2663 88.2477C62.9955 89.321 64.4862 90.752 65.6489 92.3918C67.557 95.1346 68.034 98.2948 68.034 101.515C68.0638 102.171 68.034 102.886 68.0042 103.572Z" fill="#FD7960"/>
<path d="M103.481 114.364C103.481 114.364 106.224 114.424 106.373 112.843C106.462 112.068 105.21 111.651 103.958 111.412C105.18 111.442 106.343 111.263 106.313 110.458C106.283 108.819 104.494 108.789 97.8461 108.342C94.5368 108.133 88.604 107.537 83.4463 107C83.5954 110.876 83.8339 114.722 84.132 118.597C101.066 120.028 104.524 120.893 104.793 119.045C105.001 117.733 104.107 117.524 103.481 117.464C104.256 117.464 105.717 117.345 105.866 116.421C106.134 115.228 105.15 114.722 103.481 114.364Z" fill="#FFAF90"/>
<path d="M85.9223 107.268C79.7211 106.642 71.1945 105.271 71.1945 105.271L46.5687 94.9854L41.083 101.067C63.7411 115.765 62.3995 116.839 81.2416 118.359C82.7322 118.478 84.1036 118.598 85.4154 118.717C85.5347 114.871 85.7434 111.055 85.9223 107.268Z" fill="#2F2F2F"/>
<path d="M92.2412 108.7C98.4126 106.136 100.947 104.466 102.02 105.569C103.093 106.672 100.35 107.805 97.6672 109.624C94.9542 111.443 92.2412 108.7 92.2412 108.7Z" fill="#FFAF90"/>
<path d="M67.3178 103.362C63.8296 102.021 60.4309 100.47 56.9725 99.099C56.6148 98.9499 56.4359 99.5164 56.7936 99.6654C60.252 101.037 63.6507 102.587 67.1389 103.929C67.4668 104.048 67.6755 103.482 67.3178 103.362Z" fill="#597CE1"/>
<path d="M101.394 105.956C100.917 106.642 99.7246 107.03 99.1283 106.314C99.009 106.165 98.7705 106.374 98.9196 106.523C99.6649 107.387 101.066 106.97 101.662 106.105C101.752 105.956 101.513 105.807 101.394 105.956Z" fill="#F87B4A"/>
<path d="M102.975 111.144C101.812 111.114 100.679 111.174 99.5463 110.905C99.3674 110.846 99.278 111.144 99.4569 111.203C100.62 111.502 101.782 111.412 102.975 111.472C103.154 111.442 103.184 111.144 102.975 111.144Z" fill="#F87B4A"/>
<path d="M103.719 114.453C101.871 114.364 100.022 114.215 98.1739 114.006C97.995 113.976 97.9652 114.274 98.1739 114.304C100.022 114.513 101.871 114.662 103.719 114.751C103.898 114.751 103.928 114.453 103.719 114.453Z" fill="#F87B4A"/>
<path d="M103.809 117.435C101.901 117.345 99.9628 117.166 98.0547 116.987C97.8759 116.958 97.846 117.256 98.0547 117.286C99.9628 117.494 101.871 117.643 103.809 117.733C103.988 117.763 103.988 117.464 103.809 117.435Z" fill="#F87B4A"/>
<path d="M105.36 112.337C104.853 112.098 104.197 112.188 103.75 112.516C103.273 112.874 103.303 113.44 103.66 113.887C103.78 114.036 103.988 113.828 103.869 113.679C103.154 112.754 104.585 112.307 105.27 112.605C105.449 112.695 105.539 112.397 105.36 112.337Z" fill="#F87B4A"/>
<path d="M105.15 115.258C104.673 115.109 104.136 115.258 103.749 115.586C103.331 115.944 103.272 116.331 103.421 116.868C103.48 117.047 103.779 116.987 103.719 116.808C103.689 116.659 103.6 116.48 103.629 116.331C103.659 116.123 103.808 115.944 103.957 115.825C104.256 115.556 104.673 115.437 105.061 115.556C105.239 115.616 105.329 115.318 105.15 115.258Z" fill="#F87B4A"/>
<path d="M104.167 118.478C103.69 118.239 103.153 118.239 102.736 118.567C102.378 118.835 102.318 119.283 102.646 119.611C102.795 119.73 103.004 119.551 102.855 119.402C102.586 119.134 102.765 118.865 103.034 118.716C103.332 118.537 103.69 118.567 103.988 118.716C104.167 118.806 104.316 118.567 104.167 118.478Z" fill="#F87B4A"/>
<path d="M104.822 109.504C104.464 109.504 104.077 109.593 103.838 109.891C103.629 110.19 103.629 110.547 103.719 110.905C103.779 111.084 104.047 111.024 104.017 110.846C103.957 110.607 103.928 110.339 104.077 110.1C104.256 109.862 104.554 109.802 104.822 109.802C105.001 109.802 105.001 109.504 104.822 109.504Z" fill="#F87B4A"/>
<path d="M57.3897 110.935C52.0829 107.954 46.7165 105.091 41.2607 102.438C40.9327 102.259 40.6048 102.766 40.9327 102.945C46.3886 105.598 51.755 108.46 57.0617 111.442C57.3897 111.621 57.7176 111.144 57.3897 110.935Z" fill="#597CE1"/>
<path d="M97.3692 110.131C96.8921 110.071 96.4449 110.131 95.9977 110.25C95.8785 110.28 95.8189 110.369 95.7891 110.459C95.6996 110.489 95.6102 110.518 95.5207 110.578C95.2822 110.727 95.312 111.144 95.64 111.144C96.2959 111.144 96.922 111.025 97.4884 110.727C97.7567 110.548 97.6375 110.161 97.3692 110.131Z" fill="#F87B4A"/>
<path d="M204.936 194.234H127.034C126.974 190.687 126.915 187.169 126.855 183.621C126.676 171.129 126.557 158.637 126.438 146.175C126.289 128.377 126.199 110.548 126.199 92.7498C126.199 91.289 126.199 89.8281 126.199 88.3672C126.199 87.294 126.229 86.2505 126.259 85.207H204.072C204.101 86.2803 204.131 87.3238 204.131 88.3672C204.131 101.425 204.161 114.454 204.251 127.512C204.28 132.461 204.31 137.44 204.34 142.389C204.37 144.387 204.37 146.354 204.4 148.352C204.489 159.383 204.608 170.414 204.757 181.444C204.757 181.653 204.757 181.892 204.757 182.1C204.787 183.74 204.817 185.38 204.817 187.049C204.817 187.258 204.817 187.437 204.817 187.646C204.847 189.822 204.877 192.028 204.936 194.234Z" fill="#597CE1" fill-opacity="0.2"/>
<path d="M144.982 186.898C144.982 185.408 144.952 183.947 144.952 182.456C144.952 179.177 144.982 175.867 145.012 172.588C145.041 165.492 145.012 158.367 145.012 151.271H140.301C140.301 158.606 140.331 165.999 140.301 173.363C140.271 177.835 140.212 182.397 140.301 186.898H144.982Z" fill="#597CE1" fill-opacity="0.2"/>
<path d="M172.499 186.898C172.499 185.795 172.47 184.692 172.47 183.589C172.47 181.114 172.499 178.67 172.529 176.195C172.559 170.888 172.529 165.552 172.529 160.245H167.819C167.819 165.761 167.849 171.276 167.819 176.792C167.789 180.16 167.729 183.559 167.819 186.928H172.499V186.898Z" fill="#2FD9B3"/>
<path d="M172.499 125.691C172.499 124.857 172.47 124.022 172.47 123.187C172.47 121.339 172.499 119.46 172.529 117.612C172.559 113.617 172.529 109.592 172.529 105.567H167.819C167.819 109.711 167.849 113.885 167.819 118.029C167.789 120.563 167.729 123.127 167.819 125.691H172.499Z" fill="#597CE1" fill-opacity="0.2"/>
<path d="M172.351 152.197C172.112 151.63 171.844 151.064 171.635 150.497C171.128 149.215 170.651 147.904 170.144 146.622C169.071 143.849 167.938 141.076 166.835 138.304L162.482 140.033C163.615 142.895 164.808 145.757 165.911 148.649C166.597 150.408 167.253 152.197 167.998 153.926L172.351 152.197Z" fill="#FCCE44"/>
<path d="M142.477 101.066C135.888 99.7845 132.937 99.1882 130.939 98.4131V137.051C134.636 139.228 139.257 140.092 145.936 137.826C164.509 131.476 161.111 104.704 142.477 101.066Z" fill="#2C4CA4"/>
<path d="M167.312 96.7135C165.493 98.562 162.303 97.6079 160.216 96.8328C156.579 95.4316 153.24 93.285 150.139 90.9596C147.933 89.3198 145.429 87.531 143.849 85.2652C143.819 85.2354 143.819 85.2056 143.819 85.2056C143.699 84.9075 144.176 84.669 144.355 84.9671C144.415 85.0565 144.475 85.1161 144.504 85.2056C146.412 87.8292 149.513 89.8863 152.107 91.7049C154.79 93.5533 168.146 101.961 167.789 93.3744C167.64 90.1546 164.986 87.8888 163.525 85.2056H164.181C164.837 86.3683 165.761 87.4416 166.447 88.5149C167.967 90.7509 169.607 94.3881 167.312 96.7135Z" fill="#B7EAED"/>
<path d="M155.119 186.899C155.119 184.574 155.089 182.278 155.089 179.953C155.089 174.795 155.119 169.637 155.148 164.45C155.178 153.329 155.148 142.149 155.148 130.999H150.438C150.438 142.537 150.468 154.134 150.438 165.642C150.408 172.678 150.348 179.833 150.438 186.899H155.119Z" fill="#F87B4A"/>
<path d="M139.436 108.461C139.228 108.282 138.959 108.431 138.93 108.669C138.84 109.445 138.989 110.19 139.228 110.905C139.377 111.71 139.615 112.486 140.152 113.112C140.331 113.32 140.659 113.141 140.659 112.903C140.778 111.353 140.599 109.594 139.436 108.461Z" fill="white"/>
<path d="M143.968 108.191C143.79 107.923 143.432 108.042 143.402 108.341C143.402 108.4 143.402 108.46 143.402 108.549C143.313 108.609 143.223 108.728 143.253 108.877C143.462 110.278 143.491 111.948 144.595 112.962C144.744 113.111 145.042 113.051 145.101 112.842C145.37 111.203 144.863 109.503 143.968 108.191Z" fill="white"/>
<path d="M148.708 108.192C148.708 108.162 148.679 108.132 148.649 108.102C148.559 107.983 148.47 107.834 148.381 107.744C148.202 107.536 147.904 107.715 147.874 107.953C147.725 109.354 148.589 110.517 148.589 111.889C148.589 112.187 148.947 112.246 149.096 112.097C149.126 112.157 149.156 112.187 149.186 112.246C149.364 112.485 149.722 112.395 149.752 112.097C149.901 110.845 149.454 109.295 148.708 108.192ZM148.858 109.802C148.977 110.1 149.036 110.428 149.096 110.726C148.977 110.428 148.917 110.13 148.858 109.802Z" fill="white"/>
<path d="M141.434 117.195C141.255 117.076 141.047 117.195 140.987 117.374C140.868 117.732 140.898 118.06 141.017 118.388C141.136 119.253 141.494 120.087 142.09 120.713C142.269 120.922 142.567 120.743 142.597 120.505C142.716 119.282 142.537 117.971 141.434 117.195Z" fill="white"/>
<path d="M145.608 116.898C145.459 116.778 145.221 116.898 145.161 117.076C144.982 117.583 145.072 118.09 145.25 118.567C145.399 119.491 145.698 120.386 146.413 121.042C146.592 121.221 146.92 121.101 146.92 120.833C146.98 119.432 146.831 117.822 145.608 116.898Z" fill="white"/>
<path d="M149.603 116.062C149.394 115.913 149.186 116.122 149.156 116.33C149.096 116.718 149.156 117.106 149.245 117.463C149.424 118.596 149.663 119.729 150.527 120.534C150.736 120.713 151.004 120.564 151.034 120.325C151.243 118.835 150.885 116.957 149.603 116.062ZM150.348 118.268C150.319 118.298 150.289 118.298 150.259 118.358C150.08 118 149.931 117.642 149.842 117.255C149.842 117.195 149.812 117.135 149.812 117.076C150.05 117.404 150.229 117.821 150.348 118.268Z" fill="white"/>
<path d="M135.084 138.214C134.935 120.534 134.338 102.855 135.024 85.1758H126.259C126.229 86.2192 126.199 87.2627 126.199 88.336C126.199 120.087 126.408 151.868 126.855 183.619C126.915 187.167 126.974 190.685 127.034 194.233H135.024C135.084 175.57 135.233 156.877 135.084 138.214Z" fill="#F34857"/>
<path d="M204.817 187.645C202.611 188.718 200.524 190.447 198.795 191.818C197.841 192.594 196.827 193.428 195.784 194.233H194.74C197.543 192.206 200.077 189.821 203.028 188.002C203.595 187.645 204.191 187.317 204.817 187.019C204.817 187.227 204.817 187.436 204.817 187.645Z" fill="#B7EAED"/>
<path d="M204.757 182.099C202.104 183.173 199.57 184.753 197.245 186.333C194.293 188.39 191.103 190.894 189.374 194.144C189.344 194.174 189.344 194.203 189.314 194.233H188.599C189.881 191.431 192.713 189.016 194.919 187.317C197.871 185.021 201.21 182.845 204.757 181.443C204.728 181.652 204.728 181.861 204.757 182.099Z" fill="#B7EAED"/>
<path d="M144.803 28.2921C133.95 28.4113 123.128 28.5306 112.276 28.5902C110.994 25.9965 110.309 23.1642 111.889 21.1369C115.645 16.3668 116.48 15.3233 129.121 17.1121C129.121 17.1121 136.485 16.963 143.699 17.5593C149.334 18.0363 146.412 25.1319 144.803 28.2921Z" fill="#FCCE44"/>
<path d="M146.681 23.4923C146.234 25.2811 145.429 27.0699 144.803 28.2922C133.951 28.4115 123.128 28.5307 112.276 28.5904C111.859 27.7556 111.501 26.891 111.263 26.0264C112.992 25.2811 113.588 27.9345 115.437 27.5469C118.537 26.9208 122.83 24.6848 125.931 24.5357C131.536 24.2972 136.932 22.0612 142.507 22.6873C142.447 22.9258 142.537 23.1941 142.835 23.1643C144.177 23.0749 145.459 23.1345 146.681 23.4923Z" fill="#EFBC22"/>
<path d="M154.642 27.635C158.816 27.5456 162.99 27.3369 167.164 27.8437C167.104 26.5618 166.925 25.399 166.657 24.5345C165.196 20.2115 152.346 18.7209 143.671 17.5283L142.448 27.4562C146.503 27.3369 150.587 27.7245 154.642 27.635Z" fill="#FFAF90"/>
<path d="M153.628 27.6658C154.075 24.8633 154.582 22.0907 155.238 19.3479C151.392 18.6025 147.189 18.0659 143.671 17.5889L142.448 27.5167C146.175 27.3676 149.902 27.6658 153.628 27.6658Z" fill="#FCCE44"/>
<path d="M157.354 21.2839C147.128 20.0019 137.23 19.7932 134.547 21.8801C131.864 23.9671 127.601 28.4391 128.346 29.4229C129.091 30.4067 130.433 28.8863 132.46 27.0975C132.46 27.0975 130.671 30.9136 131.715 31.2713C132.758 31.6589 133.355 30.5856 133.355 30.5856C133.355 30.5856 132.907 31.5695 134.04 31.9272C135.173 32.285 135.531 31.0328 135.531 31.0328C135.531 31.0328 134.845 32.0167 136.217 32.4639C137.588 32.9111 138.095 30.9732 139.347 29.3931C140.599 27.813 142.477 28.5285 145.399 28.3794C148.321 28.2304 167.193 28.0217 167.193 28.0217C167.193 28.0217 166.686 23.3708 157.354 21.2839Z" fill="#FFAF90"/>
<path d="M157.592 21.4046C157.443 21.2258 157.205 21.0767 156.936 20.9873C156.907 20.9575 156.877 20.9276 156.817 20.9276C156.787 20.9276 156.758 20.9276 156.728 20.9276C156.549 20.8978 156.34 20.8978 156.161 20.9276C155.953 20.9276 155.714 20.9276 155.505 20.9276C155.356 20.9276 155.297 21.1363 155.416 21.196C156.072 21.5239 156.758 21.5537 157.443 21.6432C157.622 21.673 157.682 21.4941 157.592 21.4046Z" fill="#F87B4A"/>
<path d="M135.113 26.4421C134.457 27.7539 133.711 29.0358 133.085 30.4073C132.996 30.5861 133.264 30.7352 133.354 30.5563C133.98 29.2147 134.695 27.9327 135.381 26.5911C135.441 26.4123 135.172 26.2632 135.113 26.4421Z" fill="#F87B4A"/>
<path d="M137.707 27.0383C136.842 28.2607 136.246 29.6023 135.531 30.914C135.441 31.0929 135.71 31.242 135.799 31.0631C136.485 29.7513 137.111 28.4097 137.975 27.1874C138.065 27.0383 137.826 26.8892 137.707 27.0383Z" fill="#F87B4A"/>
<path d="M129.627 27.5451C129.538 27.3961 129.27 27.5451 129.359 27.6942C129.627 28.1414 129.657 28.7079 129.24 29.0656C129.091 29.1849 129.299 29.3936 129.448 29.2743C129.955 28.8271 129.955 28.1116 129.627 27.5451Z" fill="#F87B4A"/>
<path d="M132.103 28.9766C131.924 28.9766 131.924 29.2747 132.103 29.2747C132.967 29.3343 132.967 30.348 132.58 30.9144C132.461 31.0635 132.729 31.2126 132.848 31.0635C133.355 30.2883 133.176 29.0362 132.103 28.9766Z" fill="#F87B4A"/>
<path d="M134.249 29.6324C134.071 29.6622 134.071 29.9604 134.249 29.9306C134.965 29.8709 134.577 31.2125 134.428 31.5703C134.339 31.7492 134.607 31.8982 134.697 31.7194C134.935 31.1827 135.323 29.543 134.249 29.6324Z" fill="#F87B4A"/>
<path d="M136.604 30.378C136.425 30.3183 136.336 30.6165 136.514 30.6761C137.081 30.8252 137.141 31.6003 136.872 32.0177C136.783 32.1668 137.021 32.3456 137.141 32.1668C137.528 31.5705 137.349 30.6165 136.604 30.378Z" fill="#F87B4A"/>
<path d="M145.13 26.5029C144.534 26.5924 144.117 27.4271 143.878 27.9042C143.819 28.0532 143.997 28.1725 144.087 28.0234C144.117 27.9936 144.146 27.934 144.146 27.9042C144.176 27.934 144.266 27.934 144.296 27.9042C144.713 27.5762 145.1 27.1886 145.25 26.652C145.309 26.5626 145.22 26.5029 145.13 26.5029Z" fill="#F87B4A"/>
<path d="M127.392 17.6184C127.81 18.3041 128.406 18.9004 129.091 19.3178C129.747 19.7054 130.523 19.914 131.327 19.7948C132.937 19.5563 134.398 18.1849 134.845 16.6644C135.233 15.3228 134.696 14.3091 134.219 13.5638C133.832 12.9377 133.236 12.4309 132.58 12.103C132.341 11.9837 132.073 11.8943 131.805 11.8346C130.284 11.5067 128.585 12.252 127.541 13.3849C126.468 14.6371 126.557 16.2768 127.392 17.6184Z" fill="#FFAF90"/>
<path d="M129.717 13.773C129.538 13.7432 129.151 13.773 129.031 13.922C128.554 14.4885 127.6 14.4885 126.944 14.4587C127.064 14.1009 127.272 13.7432 127.57 13.4152C128.584 12.2823 130.313 11.537 131.834 11.8649C132.102 11.9245 132.341 12.014 132.609 12.1332C133.295 12.4314 133.861 12.968 134.249 13.5941C134.547 14.0711 134.875 14.6674 134.964 15.4127C134.219 14.6674 132.072 14.1009 129.717 13.773Z" fill="#F87B4A"/>
<path d="M131.894 16.4261C131.924 16.754 132.013 17.0819 132.252 17.2906C132.401 17.4397 132.162 17.6186 132.043 17.4993C131.745 17.2012 131.626 16.8136 131.596 16.4261C131.566 16.2174 131.864 16.2174 131.894 16.4261Z" fill="#2F2F2F"/>
<path d="M130.195 15.263L129.956 15.6506C129.867 15.8295 129.598 15.6506 129.688 15.5015L129.926 15.114C130.046 14.9351 130.284 15.0841 130.195 15.263Z" fill="#2F2F2F"/>
<path d="M133.504 16.1283L133.266 16.5158C133.176 16.6947 132.908 16.5158 132.997 16.3668L133.236 15.9792C133.355 15.8003 133.594 15.9494 133.504 16.1283Z" fill="#2F2F2F"/>
<path d="M125.543 15.2334C125.304 16.4855 126.884 17.3203 127.511 17.1713L128.703 14.2197C126.974 13.3552 125.752 13.9812 125.543 15.2334Z" fill="#FFAF90"/>
<path d="M127.333 15.4717C127.154 15.2928 127.005 15.0841 127.034 14.8158C127.034 14.6369 126.736 14.6369 126.736 14.8158C126.736 15.1437 126.885 15.4717 127.124 15.6804C127.243 15.7996 127.452 15.5909 127.333 15.4717Z" fill="#2F2F2F"/>
<path d="M129.151 12.1922C124.947 11.5661 121.549 8.46554 124.441 6.70656C127.333 4.94757 132.46 12.699 129.151 12.1922Z" fill="#F87B4A"/>
<path d="M210.033 165.107C208.155 171.845 207.29 176.466 211.762 167.492C216.234 158.518 210.033 165.107 210.033 165.107Z" fill="#597CE1" fill-opacity="0.2"/>
<path d="M246.913 179.029C245.034 185.767 244.17 190.388 248.642 181.414C253.114 172.44 246.913 179.029 246.913 179.029Z" fill="#597CE1" fill-opacity="0.2"/>
<path d="M258.838 183.203C256.959 189.941 256.095 194.562 260.567 185.588C265.039 176.614 258.838 183.203 258.838 183.203Z" fill="#597CE1" fill-opacity="0.2"/>
<path d="M286.266 123.964C281.764 121.847 274.579 119.403 263.787 115.318C236.985 105.212 238.982 109.356 229.442 134.637C219.901 159.919 216.682 154.94 246.972 166.359C256.721 170.056 262.982 172.948 267.305 174.23L286.266 123.964Z" fill="#597CE1" fill-opacity="0.2"/>
<path d="M266.47 131.12C261.968 129.003 254.783 126.558 243.991 122.474C217.189 112.367 219.186 116.511 209.646 141.793C200.106 167.074 196.886 162.096 227.176 173.514C236.925 177.211 243.186 180.103 247.509 181.385L266.47 131.12Z" fill="#597CE1" fill-opacity="0.2"/>
<path d="M256.423 137.858C248.343 135.413 239.936 134.161 231.529 133.684C225.179 133.326 218.769 133.416 212.448 134.131C212.12 135.025 211.792 135.98 211.435 136.963C214.356 138.991 216.056 142.419 217.278 145.699C218.858 149.962 219.723 154.434 221.005 158.787C222.525 163.825 225 168.536 228.279 172.62C228.786 173.246 229.323 173.872 229.859 174.469C238.118 177.659 243.603 180.163 247.539 181.326L263.071 140.153C260.865 139.319 258.659 138.543 256.423 137.858Z" fill="#FD7960"/>
<path d="M286.924 103.75C286.208 102.767 284.926 102.439 283.793 102.29C282.332 102.111 280.782 102.17 279.321 102.349C276.966 102.647 273.865 103.87 272.404 101.216C271.599 99.7555 271.391 98.1754 270.347 96.804C269.363 95.5518 267.962 94.4785 266.352 94.2102C264.802 93.9717 263.162 94.4785 262.298 95.8201C261.821 96.5655 261.403 97.2213 260.509 97.5493C259.734 97.8474 258.69 97.3108 257.975 97.0425C257.229 96.7741 256.544 96.5356 255.739 96.7145C254.695 96.953 253.533 97.8474 253.741 99.04C254.01 100.531 255.798 101.097 257.14 101.514C257.289 102.051 257.587 102.349 258.005 102.707C258.899 103.452 259.615 104.198 260.33 105.122C261.94 107.209 262.775 110.309 262.268 112.903C261.97 114.394 261.791 115.676 262.477 117.107C263.133 118.508 264.325 119.611 265.726 120.207C268.529 121.4 272.703 120.506 274.253 117.763C275.237 115.974 275.505 114.066 277.771 113.44C279.321 113.022 280.961 113.231 282.541 113.112C285.642 112.873 287.102 111.144 287.49 108.133C287.669 106.762 287.818 104.943 286.924 103.75Z" fill="#F87B4A"/>
<path d="M259.762 103.841L259.047 111.085L264.413 114.275L263.906 104.139L259.762 103.841Z" fill="#FFAF90"/>
<path d="M260.448 108.641C261.819 107.508 262.684 105.779 263.429 104.139L259.762 103.841L259.226 109.267C259.673 109.148 260.06 108.939 260.448 108.641Z" fill="#F87B4A"/>
<path d="M256.959 99.9644C257.496 99.0998 258.42 98.5036 259.404 98.2949C260.269 98.116 261.401 97.9967 262.534 98.8017C263.816 99.7259 264.562 101.604 264.234 103.184C263.876 104.794 262.355 105.778 260.835 106.106C259.285 106.434 257.705 105.927 256.959 104.496C256.214 103.154 256.124 101.276 256.959 99.9644Z" fill="#FFAF90"/>
<path d="M261.462 100.859C262.118 101.306 263.371 103.185 264.265 102.857C264.444 101.366 263.698 99.6965 262.506 98.832C261.373 98.027 260.24 98.1463 259.376 98.3251C258.541 98.504 257.795 98.9512 257.259 99.5773C257.825 99.9947 261.164 98.504 261.462 100.859Z" fill="#F87B4A"/>
<path d="M264.831 101.664C264.414 100.203 262.953 99.9351 261.343 100.77L263.161 104.019C263.847 104.019 265.189 102.887 264.831 101.664Z" fill="#FFAF90"/>
<path d="M257.08 102.886C257.378 102.737 257.616 102.499 257.736 102.201C257.795 102.022 258.064 102.141 258.004 102.32C257.855 102.708 257.557 102.976 257.199 103.155C257.02 103.244 256.901 102.976 257.08 102.886Z" fill="#2F2F2F"/>
<path d="M259.017 101.664L259.077 102.111C259.106 102.29 258.808 102.349 258.779 102.141L258.719 101.693C258.689 101.515 258.987 101.455 259.017 101.664Z" fill="#2F2F2F"/>
<path d="M262.773 102.41C263.012 102.29 263.191 102.111 263.28 101.873C263.34 101.694 263.608 101.783 263.548 101.962C263.459 102.29 263.191 102.529 262.892 102.678C262.743 102.737 262.594 102.469 262.773 102.41Z" fill="#2F2F2F"/>
<path d="M239.341 124.531C210.005 121.46 212.211 121.669 202.939 128.436C188.957 138.633 175.72 147.517 175.72 147.517C175.72 147.517 174.915 146.116 171.755 143.134C168.863 140.421 166.776 140.749 182.458 163.795C182.458 163.795 188.182 158.518 192.385 158.309C196.589 158.101 199.213 152.376 202.105 149.723C204.967 147.07 209.17 148.411 211.585 142.478C214 136.546 217.488 135.8 217.488 135.8C217.488 135.8 248.196 142.27 256.126 144.237C264.057 146.205 255.023 131.924 249.299 129.062C243.515 126.2 239.341 124.531 239.341 124.531Z" fill="#2F2F2F"/>
<path d="M204.37 148.351C203.535 148.679 202.76 149.097 202.044 149.752C199.182 152.376 196.529 158.1 192.325 158.339C188.121 158.547 182.397 163.824 182.397 163.824C166.745 140.779 168.802 140.451 171.694 143.164C174.884 146.145 175.659 147.546 175.659 147.546C175.659 147.546 188.896 138.662 202.879 128.466C203.326 128.138 203.773 127.81 204.161 127.512C204.191 132.461 204.221 137.44 204.25 142.389C204.34 144.356 204.34 146.354 204.37 148.351Z" fill="#597CE1"/>
<path d="M179.475 144.953C177.12 146.563 175.719 147.487 175.719 147.487C175.719 147.487 174.914 146.086 171.754 143.105C168.862 140.392 166.775 140.719 182.457 163.765C182.457 163.765 185.11 161.35 188.091 159.711C185.199 154.821 182.158 149.991 179.475 144.953Z" fill="#F34857"/>
<path d="M254.964 134.22C248.822 132.729 242.203 134.309 235.972 132.818C232.454 131.984 228.37 129.777 224.792 131.298C222.497 132.282 220.708 134.16 219.128 136.128C225.657 137.499 249.269 142.508 256.096 144.207C261.552 145.608 258.959 139.228 254.964 134.22Z" fill="#597CE1"/>
<path d="M261.999 134.578C261.969 134.638 261.909 134.667 261.85 134.727C261.253 135.353 260.24 136.307 258.898 137.44C257.825 138.364 256.543 139.467 255.142 140.63C248.344 146.295 238.715 153.927 235.018 156.848C234.421 168.178 235.644 169.996 232.841 176.853C231.291 180.669 235.048 184.426 232.961 188.689C230.874 192.952 232.126 194.205 231.679 196.202C231.679 196.202 209.289 195.785 207.083 195.725C204.876 195.636 206.934 193.877 214.834 192.863C214.834 192.863 218.74 163.139 220.23 156.521C220.886 153.629 221.095 151.929 221.751 150.767C221.751 150.707 223.212 148.501 224.941 146.712C228.34 143.194 237.194 135.741 242.65 131.239C244.826 129.45 246.466 128.108 247.003 127.691C247.122 127.602 247.182 127.542 247.182 127.542L261.999 134.578Z" fill="#2F2F2F"/>
<path d="M232.543 189.702C226.878 189.046 221.184 188.659 215.52 188.182C215.132 191.014 214.894 192.833 214.894 192.833C206.993 193.846 204.906 195.605 207.142 195.695C209.348 195.784 231.738 196.172 231.738 196.172C232.155 194.383 231.142 193.19 232.543 189.702Z" fill="#F87B4A"/>
<path d="M216.951 132.759C216.892 132.998 216.862 133.266 216.802 133.504C216.743 133.803 216.713 134.071 216.713 134.369C216.713 134.458 216.713 134.548 216.713 134.637C216.713 134.667 216.713 134.667 216.713 134.697C216.713 135.025 217.22 135.174 217.279 134.816C217.369 134.16 217.488 133.534 217.488 132.878C217.548 132.521 217.011 132.431 216.951 132.759Z" fill="#F34857"/>
<path d="M234.332 154.464V156.252C234.332 156.64 234.928 156.64 234.928 156.252V154.464C234.928 154.076 234.332 154.076 234.332 154.464Z" fill="#F34857"/>
<path d="M262.179 111.532C252.549 108.52 250.641 106.553 247.063 116.51C243.486 126.438 242.502 128.644 242.502 128.644L262.179 136.605C262.179 136.605 268.44 128.316 270.914 123.695C273.895 118.091 276.787 116.123 262.179 111.532Z" fill="#2F2F2F"/>
<path d="M225 112.427C225.388 109.506 227.385 106.703 228.667 107.21C229.949 107.717 227.087 113.978 227.087 113.978L225 112.427Z" fill="#FFAF90"/>
<path d="M228.757 119.85L237.492 127.274C237.373 126.171 237.164 125.068 236.955 123.994C236.508 121.699 236.121 119.373 235.793 117.048C235.494 114.901 235.435 112.695 235.047 110.548L226.819 103.751C226.521 104.556 227.445 110.757 227.922 112.933C228.399 115.229 228.488 117.555 228.757 119.85Z" fill="#F34857"/>
<path d="M253.352 123.905L239.489 127.513C239.25 126.439 239.221 125.306 239.161 124.203C239.042 121.848 238.803 119.523 238.445 117.197C238.118 115.051 237.462 112.934 237.253 110.787L250.579 107.955C251.325 108.611 252.13 114.812 252.189 117.078C252.249 119.374 252.935 121.61 253.352 123.905Z" fill="#F34857"/>
<path d="M235.047 110.578L237.223 110.757L240.383 120.118L239.489 127.482L237.492 127.303L233.526 117.465L235.047 110.578Z" fill="#F34857"/>
<path d="M234.898 111.175C234.898 110.787 234.332 110.727 234.302 111.085C234.123 116.124 235.524 121.013 236.24 125.932C236.299 126.32 236.896 126.23 236.836 125.843C236.12 120.983 234.719 116.153 234.898 111.175Z" fill="#2F2F2F"/>
<path d="M237.61 111.174C237.998 116.541 238.863 121.847 239.429 127.184C239.459 127.572 240.055 127.482 240.025 127.095C239.459 121.758 238.624 116.451 238.207 111.085C238.177 110.697 237.581 110.787 237.61 111.174Z" fill="#2F2F2F"/>
<path d="M272.284 129.211C272.493 125.127 272.761 120.953 273 118.598L265.695 118.955L262.923 129.152C266.053 129.152 269.154 129.181 272.284 129.211Z" fill="#2F2F2F"/>
<path d="M263.132 128.436L262.327 131.418C262.327 131.418 251.713 125.038 248.881 123.487C247.837 125.574 246.824 127.661 245.84 129.808C249.089 131.805 253.353 135.055 260.478 140.481C270.913 148.441 271.897 142.568 271.897 139.497C271.897 137.798 272.076 133.087 272.314 128.407C269.273 128.317 266.173 128.407 263.132 128.436Z" fill="#FFAF90"/>
<path d="M246.525 122.742C244.528 119.612 244.498 118.926 245.273 118.479C246.853 117.614 249.477 122.683 251.236 125.157C252.995 127.632 246.525 122.742 246.525 122.742Z" fill="#FFAF90"/>
<path d="M247.39 121.162C244.737 121.49 244.081 123.786 242.62 122.414C241.159 121.043 239.818 120.029 239.311 121.162C238.804 122.295 239.52 122.742 239.52 122.742C239.52 122.742 238.506 122.176 238.267 122.921C238.059 123.667 238.744 124.621 238.744 124.621C238.744 124.621 237.999 123.875 237.552 124.74C237.105 125.604 238.089 126.32 238.089 126.32C238.089 126.32 237.284 125.634 236.956 126.499C236.628 127.363 237.164 128.079 239.549 130.017C241.934 131.955 240.861 132.909 247.569 130.643C254.337 128.377 247.39 121.162 247.39 121.162Z" fill="#FFAF90"/>
<path d="M226.431 111.324C225.597 111.294 224.911 112.01 225.03 112.874C225.954 118.956 226.163 120.358 228.459 120.686C230.963 121.043 233.259 120.686 233.259 119.612C233.259 118.539 230.397 118.718 230.397 118.718C230.397 118.718 232.811 118.748 232.931 117.764C233.05 116.78 231.321 116.392 230.009 116.243C230.009 116.243 232.722 116.929 232.722 115.379C232.722 113.828 230.993 114.305 228.518 113.709C228.518 113.709 232.483 113.799 232.364 112.606C232.245 111.414 229.92 111.384 227.624 111.384C227.177 111.354 226.789 111.354 226.431 111.324Z" fill="#FFAF90"/>
<path d="M235.852 109.953C234.481 108.73 232.901 107.717 231.529 106.494C230.188 105.302 229.085 103.871 227.803 102.619C227.534 102.35 227.117 102.768 227.385 103.036C228.667 104.318 229.77 105.719 231.112 106.912C232.483 108.164 234.064 109.148 235.435 110.37C235.703 110.609 236.121 110.191 235.852 109.953Z" fill="#FFAF90"/>
<path d="M235.285 108.7C232.751 107.031 231.499 103.9 229.024 102.141C228.696 101.933 228.398 102.439 228.726 102.648C231.201 104.407 232.423 107.537 234.987 109.207C235.315 109.416 235.613 108.909 235.285 108.7Z" fill="#FFAF90"/>
<path d="M247.748 107.061C245.631 107.12 243.633 107.806 241.576 108.164C239.936 108.432 238.267 108.7 236.896 109.744C236.597 109.982 237.015 110.4 237.313 110.161C238.655 109.088 240.473 108.969 242.113 108.67C243.991 108.343 245.81 107.716 247.748 107.657C248.135 107.657 248.135 107.061 247.748 107.061Z" fill="#FFAF90"/>
<path d="M248.345 105.391C247.391 105.391 246.496 105.719 245.572 105.957C244.29 106.255 243.008 106.553 241.696 106.851C239.967 107.239 238.059 107.478 236.688 108.67C236.389 108.909 236.807 109.356 237.105 109.087C238.506 107.865 240.563 107.716 242.292 107.328C243.336 107.09 244.409 106.822 245.453 106.583C246.377 106.374 247.361 105.987 248.315 105.987C248.732 105.987 248.732 105.391 248.345 105.391Z" fill="#FFAF90"/>
<path d="M243.783 124.859C242.232 125.247 241.129 123.518 239.937 122.832C239.758 122.743 239.609 122.981 239.788 123.1C241.1 123.846 242.173 125.575 243.872 125.158C244.051 125.098 243.962 124.83 243.783 124.859Z" fill="#F34857"/>
<path d="M242.292 126.946C240.652 126.797 239.966 125.127 238.655 124.382C238.476 124.292 238.327 124.531 238.506 124.65C239.907 125.425 240.563 127.095 242.322 127.244C242.471 127.274 242.471 126.976 242.292 126.946Z" fill="#F34857"/>
<path d="M241.696 128.675C240.056 128.764 239.132 127.005 237.939 126.171C237.79 126.051 237.641 126.32 237.79 126.439C239.042 127.333 239.937 129.092 241.696 129.003C241.875 128.973 241.875 128.675 241.696 128.675Z" fill="#F34857"/>
<path d="M237.7 126.409C237.581 126.26 237.342 126.409 237.432 126.558C237.551 126.737 237.73 126.857 237.849 127.035C238.058 127.304 237.968 127.691 237.64 127.781C237.462 127.84 237.521 128.139 237.73 128.079C238.058 127.99 238.296 127.662 238.296 127.304C238.266 126.916 237.909 126.737 237.7 126.409Z" fill="#F34857"/>
<path d="M238.505 124.59C238.356 124.471 238.147 124.68 238.296 124.799C238.624 125.097 238.893 125.842 238.386 126.111C238.207 126.2 238.356 126.469 238.535 126.379C239.221 126.021 238.982 125.037 238.505 124.59Z" fill="#F34857"/>
<path d="M239.103 122.712C238.954 122.593 238.745 122.802 238.894 122.921C239.282 123.219 239.788 123.935 239.162 124.263C238.984 124.352 239.133 124.62 239.311 124.531C240.116 124.114 239.669 123.13 239.103 122.712Z" fill="#F34857"/>
<path d="M240.503 121.938C240.413 121.52 239.936 121.312 239.578 121.163C239.4 121.073 239.251 121.341 239.429 121.431C239.668 121.52 239.906 121.64 240.085 121.818C240.175 121.908 240.354 122.415 240.085 122.415C239.906 122.415 239.906 122.713 240.085 122.713C240.473 122.683 240.592 122.236 240.503 121.938Z" fill="#F34857"/>
<path d="M246.705 120.089C246.138 120.089 245.244 119.701 245.78 119.045C245.9 118.896 245.691 118.687 245.572 118.836C245.303 119.194 245.214 119.612 245.542 119.94C245.84 120.238 246.317 120.387 246.734 120.387C246.913 120.387 246.913 120.089 246.705 120.089Z" fill="#F34857"/>
<path d="M229.622 113.441C228.906 113.441 228.191 113.381 227.475 113.352C227.296 113.352 227.296 113.65 227.475 113.65C228.191 113.68 228.906 113.739 229.622 113.739C229.8 113.739 229.8 113.441 229.622 113.441Z" fill="#F34857"/>
<path d="M231.082 116.154C229.74 116.452 228.488 116.094 227.266 115.528C227.087 115.438 226.938 115.707 227.117 115.796C228.429 116.392 229.74 116.75 231.172 116.452C231.321 116.422 231.261 116.124 231.082 116.154Z" fill="#F34857"/>
<path d="M230.874 118.598C229.592 118.777 228.369 118.538 227.147 118.27C226.968 118.24 226.879 118.508 227.057 118.568C228.339 118.866 229.562 119.105 230.874 118.926C231.052 118.866 231.052 118.568 230.874 118.598Z" fill="#F34857"/>
<path d="M231.768 112.307C231.41 112.039 230.903 111.979 230.515 112.188C230.068 112.427 230.187 112.874 230.456 113.202C230.575 113.351 230.784 113.142 230.664 112.993C230.456 112.754 230.456 112.516 230.784 112.427C231.082 112.337 231.38 112.426 231.618 112.605C231.797 112.665 231.917 112.426 231.768 112.307Z" fill="#F34857"/>
<path d="M232.214 115.109C231.886 114.841 231.439 114.603 230.992 114.692C230.545 114.811 230.426 115.229 230.515 115.646C230.545 115.825 230.843 115.765 230.813 115.557C230.664 114.722 231.618 114.96 232.006 115.318C232.125 115.437 232.363 115.229 232.214 115.109Z" fill="#F34857"/>
<path d="M232.453 117.345C232.125 117.077 231.619 116.839 231.201 117.107C230.903 117.286 230.635 117.733 230.963 118.001C231.112 118.121 231.321 117.912 231.171 117.793C230.993 117.614 231.321 117.345 231.499 117.316C231.768 117.256 232.066 117.405 232.275 117.584C232.394 117.673 232.602 117.465 232.453 117.345Z" fill="#F34857"/>
<path d="M232.632 119.462C232.275 119.313 231.857 119.194 231.47 119.343C231.082 119.492 230.963 119.85 230.963 120.237C230.963 120.416 231.261 120.416 231.261 120.237C231.231 119.492 231.947 119.492 232.483 119.73C232.662 119.79 232.811 119.552 232.632 119.462Z" fill="#F34857"/>
<path d="M227.594 111.293C227.326 111.293 226.73 111.234 226.64 110.906C226.581 110.727 226.312 110.786 226.342 110.995C226.491 111.472 227.147 111.591 227.564 111.591C227.773 111.591 227.773 111.293 227.594 111.293Z" fill="#F34857"/>
<path d="M248.851 128.348C248.822 128.258 248.702 128.228 248.643 128.258C248.255 128.467 247.957 128.884 247.838 129.302C247.689 129.54 247.629 129.809 247.659 130.047C247.659 130.136 247.778 130.166 247.838 130.136C248.523 130.017 248.971 128.974 248.851 128.348Z" fill="#597CE1"/>
<path d="M264.532 122.444C264.591 122.056 264.025 121.907 263.965 122.295C263.727 123.577 263.28 124.919 263.369 126.26C263.399 126.648 263.995 126.648 263.965 126.26C263.876 124.978 264.293 123.696 264.532 122.444Z" fill="#2F2F2F"/>
<path d="M281.438 136.754C278.993 135.412 274.968 134.16 269.006 131.894C254.159 126.289 254.755 129.927 245.215 155.179C235.675 180.46 233.886 176.376 250.7 182.726C256.097 184.753 260.032 186.423 262.507 186.989L281.438 136.754Z" fill="#597CE1" fill-opacity="0.2"/>
<path d="M262.388 173.512C261.613 173.363 261.136 173.989 260.927 174.645C259.943 175.748 258.81 176.613 257.737 177.627C257.23 178.134 256.425 178.879 256.306 179.624C256.217 180.25 256.634 180.548 257.2 180.638C258.184 180.817 258.959 180.429 259.705 179.863C260.689 179.147 261.553 178.253 262.328 177.329C262.865 176.673 263.431 175.987 263.431 175.093C263.461 174.437 263.103 173.691 262.388 173.512Z" fill="#2F2F2F"/>
</svg>